<?xml version="1.0" encoding="utf-8"?>
<!-- Generator: Adobe Illustrator 28.0.0, SVG Export Plug-In . SVG Version: 6.00 Build 0)  -->
<svg version="1.1" id="Layer_1" xmlns="http://www.w3.org/2000/svg" xmlns:xlink="http://www.w3.org/1999/xlink" x="0px" y="0px"
	 viewBox="0 0 253 150" style="enable-background:new 0 0 253 150;" xml:space="preserve">
<style type="text/css">
	.st0{fill:none;stroke:#FF4400;stroke-width:0.5;stroke-miterlimit:10;}
	.st1{fill-rule:evenodd;clip-rule:evenodd;fill:#FFA600;}
	.st2{fill:#FF4400;stroke:#FFA600;stroke-width:0.5;stroke-miterlimit:10;}
</style>
<g>
	<polygon class="st0" points="202.92,29.73 194.94,43.58 194.89,43.58 186.91,57.37 186.91,57.42 178.92,71.22 178.92,71.26 
		170.94,85.11 154.97,112.8 154.93,112.8 146.94,98.95 130.98,71.26 123,85.11 122.95,85.11 115.01,98.91 115.01,98.95 99.04,98.95 
		106.98,85.11 107.03,85.11 115.01,71.26 123,57.42 115.01,43.58 114.97,43.58 107.03,57.42 106.98,57.42 99,71.22 99,71.26 
		91.02,85.11 83.03,98.95 67.02,98.95 75,85.11 75.05,85.11 82.99,71.26 83.03,71.26 83.03,71.22 91.02,57.42 91.02,57.37 99,43.58 
		99,43.53 106.98,29.73 123,29.73 130.98,43.58 138.96,29.73 138.96,29.69 146.94,15.89 162.96,15.89 154.97,29.69 154.97,29.73 
		154.93,29.73 146.94,43.53 146.94,43.58 138.96,57.42 146.94,71.22 146.94,71.26 146.99,71.26 154.93,85.11 154.97,85.11 
		162.91,71.26 162.96,71.26 162.96,71.22 170.94,57.42 170.94,57.37 178.92,43.58 178.92,43.53 186.91,29.73 194.89,15.89 
		194.94,15.89 	"/>
	<polygon class="st1" points="202.92,29.73 194.94,43.58 194.89,43.58 186.91,57.37 186.91,57.42 178.92,71.22 178.92,71.26 
		170.94,85.11 154.97,112.8 154.93,112.8 146.94,98.95 130.98,71.26 123,85.11 122.95,85.11 115.01,98.91 115.01,98.95 99.04,98.95 
		106.98,85.11 107.03,85.11 115.01,71.26 123,57.42 115.01,43.58 114.97,43.58 107.03,57.42 106.98,57.42 99,71.22 99,71.26 
		91.02,85.11 83.03,98.95 67.02,98.95 75,85.11 75.05,85.11 82.99,71.26 83.03,71.26 83.03,71.22 91.02,57.42 91.02,57.37 99,43.58 
		99,43.53 106.98,29.73 123,29.73 130.98,43.58 138.96,29.73 138.96,29.69 146.94,15.89 162.96,15.89 154.97,29.69 154.97,29.73 
		154.93,29.73 146.94,43.53 146.94,43.58 138.96,57.42 146.94,71.22 146.94,71.26 146.99,71.26 154.93,85.11 154.97,85.11 
		162.91,71.26 162.96,71.26 162.96,71.22 170.94,57.42 170.94,57.37 178.92,43.58 178.92,43.53 186.91,29.73 194.89,15.89 
		194.94,15.89 	"/>
</g>
<g>
	<path class="st2" d="M58.55,137.87l-4.2-16.56h2.26l1.97,8.38c0.49,2.06,0.93,4.13,1.23,5.73h0.05c0.27-1.65,0.79-3.61,1.35-5.75
		l2.21-8.36h2.24l2.01,8.4c0.47,1.96,0.91,3.93,1.16,5.67h0.05c0.34-1.82,0.81-3.66,1.32-5.72l2.19-8.36h2.19l-4.7,16.56h-2.24
		l-2.09-8.63c-0.51-2.11-0.86-3.74-1.08-5.41h-0.05c-0.3,1.65-0.67,3.27-1.28,5.41l-2.36,8.63H58.55z"/>
	<path class="st2" d="M86.53,131.83c0,4.4-3.05,6.31-5.93,6.31c-3.22,0-5.7-2.36-5.7-6.12c0-3.98,2.6-6.31,5.9-6.31
		C84.22,125.71,86.53,128.18,86.53,131.83z M77.09,131.95c0,2.6,1.5,4.57,3.61,4.57c2.06,0,3.61-1.94,3.61-4.62
		c0-2.01-1.01-4.57-3.56-4.57C78.2,127.33,77.09,129.69,77.09,131.95z"/>
	<path class="st2" d="M89.25,129.69c0-1.4-0.02-2.6-0.1-3.71h1.89l0.08,2.33h0.09c0.54-1.6,1.84-2.6,3.29-2.6
		c0.25,0,0.42,0.02,0.61,0.07v2.04c-0.22-0.05-0.44-0.08-0.73-0.08c-1.52,0-2.6,1.16-2.9,2.78c-0.05,0.29-0.09,0.64-0.09,1v6.34
		h-2.14V129.69z"/>
	<path class="st2" d="M97.39,120.42h2.16v17.45h-2.16V120.42z"/>
	<path class="st2" d="M113.46,120.42v14.38c0,1.06,0.03,2.26,0.1,3.07h-1.94l-0.09-2.06h-0.05c-0.66,1.32-2.11,2.33-4.06,2.33
		c-2.88,0-5.09-2.43-5.09-6.04c-0.02-3.96,2.43-6.39,5.34-6.39c1.82,0,3.05,0.86,3.59,1.82h0.05v-7.1H113.46z M111.31,130.82
		c0-0.27-0.03-0.64-0.1-0.91c-0.32-1.37-1.5-2.51-3.12-2.51c-2.24,0-3.56,1.96-3.56,4.6c0,2.41,1.18,4.4,3.51,4.4
		c1.45,0,2.78-0.96,3.17-2.58c0.07-0.29,0.1-0.59,0.1-0.93V130.82z"/>
	<path class="st2" d="M130.92,130.1h-6.44v5.97h7.17v1.79h-9.31v-16.56h8.95v1.79h-6.8v5.23h6.44V130.1z"/>
	<path class="st2" d="M135.37,125.98l1.69,2.56c0.44,0.66,0.81,1.28,1.2,1.94h0.07c0.4-0.72,0.79-1.33,1.18-1.97l1.67-2.53h2.33
		l-4.06,5.75l4.18,6.14h-2.46l-1.74-2.68c-0.47-0.69-0.86-1.35-1.28-2.06h-0.05c-0.39,0.71-0.81,1.35-1.25,2.06l-1.72,2.68h-2.38
		l4.23-6.07l-4.03-5.82H135.37z"/>
	<path class="st2" d="M145.74,129.86c0-1.52-0.05-2.75-0.1-3.88h1.94l0.1,2.04h0.05c0.88-1.45,2.28-2.31,4.23-2.31
		c2.88,0,5.04,2.43,5.04,6.04c0,4.28-2.6,6.39-5.41,6.39c-1.57,0-2.95-0.69-3.66-1.87h-0.05v6.46h-2.14V129.86z M147.88,133.03
		c0,0.32,0.05,0.61,0.09,0.88c0.4,1.5,1.7,2.53,3.24,2.53c2.28,0,3.61-1.87,3.61-4.6c0-2.38-1.25-4.43-3.54-4.43
		c-1.47,0-2.85,1.06-3.27,2.68c-0.07,0.27-0.14,0.59-0.14,0.88V133.03z"/>
	<path class="st2" d="M159.73,120.42h2.16v17.45h-2.16V120.42z"/>
	<path class="st2" d="M176.29,131.83c0,4.4-3.05,6.31-5.93,6.31c-3.22,0-5.7-2.36-5.7-6.12c0-3.98,2.6-6.31,5.9-6.31
		C173.98,125.71,176.29,128.18,176.29,131.83z M166.86,131.95c0,2.6,1.5,4.57,3.61,4.57c2.06,0,3.61-1.94,3.61-4.62
		c0-2.01-1.01-4.57-3.56-4.57S166.86,129.69,166.86,131.95z"/>
	<path class="st2" d="M179.02,129.69c0-1.4-0.02-2.6-0.1-3.71h1.89l0.08,2.33h0.09c0.54-1.6,1.84-2.6,3.29-2.6
		c0.25,0,0.42,0.02,0.61,0.07v2.04c-0.22-0.05-0.44-0.08-0.73-0.08c-1.52,0-2.6,1.16-2.9,2.78c-0.05,0.29-0.1,0.64-0.1,1v6.34h-2.14
		V129.69z"/>
	<path class="st2" d="M188.01,132.32c0.05,2.92,1.92,4.13,4.08,4.13c1.55,0,2.48-0.27,3.29-0.62l0.37,1.55
		c-0.76,0.34-2.06,0.74-3.96,0.74c-3.66,0-5.85-2.41-5.85-6s2.11-6.41,5.58-6.41c3.88,0,4.92,3.42,4.92,5.6
		c0,0.44-0.05,0.79-0.08,1.01H188.01z M194.36,130.77c0.03-1.37-0.56-3.52-3-3.52c-2.19,0-3.15,2.01-3.32,3.52H194.36z"/>
	<path class="st2" d="M199.13,129.69c0-1.4-0.02-2.6-0.1-3.71h1.89l0.08,2.33h0.09c0.54-1.6,1.84-2.6,3.29-2.6
		c0.25,0,0.42,0.02,0.61,0.07v2.04c-0.22-0.05-0.44-0.08-0.73-0.08c-1.52,0-2.6,1.16-2.9,2.78c-0.05,0.29-0.1,0.64-0.1,1v6.34h-2.14
		V129.69z"/>
</g>
</svg>
