<?xml version="1.0" encoding="utf-8"?>
<!-- Generator: Adobe Illustrator 28.0.0, SVG Export Plug-In . SVG Version: 6.00 Build 0)  -->
<svg version="1.1" id="Layer_1" xmlns="http://www.w3.org/2000/svg" xmlns:xlink="http://www.w3.org/1999/xlink" x="0px" y="0px" height="500" width="500"
	 viewBox="0 0 800 200" style="enable-background:new 0 0 250 100;" xml:space="preserve">
<style type="text/css">
	.st0{display:none;}
	.st1{display:inline;fill:none;stroke:#000000;stroke-width:0.5;stroke-miterlimit:10;}
	.st2{display:inline;fill-rule:evenodd;clip-rule:evenodd;fill:#8BBEB2;}
	.st3{fill:none;stroke:#FF4400;stroke-width:0.5;stroke-miterlimit:10;}
	.st4{fill-rule:evenodd;clip-rule:evenodd;fill:#FFA600;}
	.st5{fill:#FF4400;stroke:#FFA600;stroke-width:0.5;stroke-miterlimit:10;}
</style>
<g class="st0">
	<polygon class="st1" points="110.39,57.79 110.38,57.79 108.65,60.79 106.92,57.79 103.46,51.79 101.73,48.79 100,45.79 
		103.46,45.79 105.19,48.79 106.92,51.78 106.92,51.79 108.65,54.78 108.65,54.79 108.66,54.79 	"/>
	<polygon class="st2" points="110.39,57.79 110.38,57.79 108.65,60.79 106.92,57.79 103.46,51.79 101.73,48.79 100,45.79 
		103.46,45.79 105.19,48.79 106.92,51.78 106.92,51.79 108.65,54.78 108.65,54.79 108.66,54.79 	"/>
</g>
<g>
	<polygon class="st3" points="138.1,45.79 136.37,48.79 136.36,48.79 134.63,51.78 134.63,51.79 132.9,54.78 132.9,54.79 
		131.17,57.79 127.71,63.79 127.7,63.79 125.97,60.79 122.51,54.79 120.78,57.79 120.77,57.79 119.05,60.78 119.05,60.79 
		115.59,60.79 117.31,57.79 117.32,57.79 119.05,54.79 120.78,51.79 119.05,48.79 119.04,48.79 117.32,51.79 117.31,51.79 
		115.58,54.78 115.58,54.79 113.85,57.79 112.12,60.79 108.65,60.79 110.38,57.79 110.39,57.79 112.11,54.79 112.12,54.79 
		112.12,54.78 113.85,51.79 113.85,51.78 115.58,48.79 115.58,48.78 117.31,45.79 120.78,45.79 122.51,48.79 124.24,45.79 
		124.24,45.78 125.97,42.79 129.44,42.79 127.71,45.78 127.71,45.79 127.7,45.79 125.97,48.78 125.97,48.79 124.24,51.79 
		125.97,54.78 125.97,54.79 125.98,54.79 127.7,57.79 127.71,57.79 129.43,54.79 129.44,54.79 129.44,54.78 131.17,51.79 
		131.17,51.78 132.9,48.79 132.9,48.78 134.63,45.79 136.36,42.79 136.37,42.79 	"/>
	<polygon class="st4" points="138.1,45.79 136.37,48.79 136.36,48.79 134.63,51.78 134.63,51.79 132.9,54.78 132.9,54.79 
		131.17,57.79 127.71,63.79 127.7,63.79 125.97,60.79 122.51,54.79 120.78,57.79 120.77,57.79 119.05,60.78 119.05,60.79 
		115.59,60.79 117.31,57.79 117.32,57.79 119.05,54.79 120.78,51.79 119.05,48.79 119.04,48.79 117.32,51.79 117.31,51.79 
		115.58,54.78 115.58,54.79 113.85,57.79 112.12,60.79 108.65,60.79 110.38,57.79 110.39,57.79 112.11,54.79 112.12,54.79 
		112.12,54.78 113.85,51.79 113.85,51.78 115.58,48.79 115.58,48.78 117.31,45.79 120.78,45.79 122.51,48.79 124.24,45.79 
		124.24,45.78 125.97,42.79 129.44,42.79 127.71,45.78 127.71,45.79 127.7,45.79 125.97,48.78 125.97,48.79 124.24,51.79 
		125.97,54.78 125.97,54.79 125.98,54.79 127.7,57.79 127.71,57.79 129.43,54.79 129.44,54.79 129.44,54.78 131.17,51.79 
		131.17,51.78 132.9,48.79 132.9,48.78 134.63,45.79 136.36,42.79 136.37,42.79 	"/>
</g>
<g>
	<path class="st5" d="M106.82,69.22l-0.91-3.59h0.49l0.43,1.82c0.11,0.45,0.2,0.89,0.27,1.24h0.01c0.06-0.36,0.17-0.78,0.29-1.25
		l0.48-1.81h0.48l0.44,1.82c0.1,0.43,0.2,0.85,0.25,1.23h0.01c0.07-0.39,0.18-0.79,0.29-1.24l0.47-1.81h0.47l-1.02,3.59h-0.48
		l-0.45-1.87c-0.11-0.46-0.19-0.81-0.23-1.17h-0.01c-0.06,0.36-0.14,0.71-0.28,1.17l-0.51,1.87H106.82z"/>
	<path class="st5" d="M112.88,67.91c0,0.95-0.66,1.37-1.28,1.37c-0.7,0-1.24-0.51-1.24-1.33c0-0.86,0.56-1.37,1.28-1.37
		C112.38,66.59,112.88,67.12,112.88,67.91z M110.83,67.94c0,0.56,0.32,0.99,0.78,0.99c0.45,0,0.78-0.42,0.78-1
		c0-0.44-0.22-0.99-0.77-0.99S110.83,67.45,110.83,67.94z"/>
	<path class="st5" d="M113.47,67.45c0-0.3,0-0.56-0.02-0.8h0.41l0.02,0.51h0.02c0.12-0.35,0.4-0.56,0.71-0.56
		c0.05,0,0.09,0,0.13,0.02v0.44c-0.05-0.01-0.1-0.02-0.16-0.02c-0.33,0-0.56,0.25-0.63,0.6c-0.01,0.06-0.02,0.14-0.02,0.22v1.37
		h-0.46V67.45z"/>
	<path class="st5" d="M115.23,65.44h0.47v3.78h-0.47V65.44z"/>
	<path class="st5" d="M118.71,65.44v3.12c0,0.23,0.01,0.49,0.02,0.67h-0.42l-0.02-0.45h-0.01c-0.14,0.29-0.46,0.51-0.88,0.51
		c-0.62,0-1.1-0.53-1.1-1.31c0-0.86,0.53-1.38,1.16-1.38c0.39,0,0.66,0.19,0.78,0.39h0.01v-1.54H118.71z M118.25,67.69
		c0-0.06-0.01-0.14-0.02-0.2c-0.07-0.3-0.33-0.54-0.68-0.54c-0.48,0-0.77,0.43-0.77,1c0,0.52,0.25,0.95,0.76,0.95
		c0.31,0,0.6-0.21,0.69-0.56c0.02-0.06,0.02-0.13,0.02-0.2V67.69z"/>
	<path class="st5" d="M122.5,67.54h-1.4v1.29h1.55v0.39h-2.02v-3.59h1.94v0.39h-1.47v1.13h1.4V67.54z"/>
	<path class="st5" d="M123.46,66.65l0.37,0.55c0.1,0.14,0.18,0.28,0.26,0.42h0.02c0.09-0.16,0.17-0.29,0.26-0.43l0.36-0.55h0.51
		l-0.88,1.25l0.91,1.33h-0.53l-0.38-0.58c-0.1-0.15-0.19-0.29-0.28-0.45h-0.01c-0.08,0.15-0.18,0.29-0.27,0.45l-0.37,0.58h-0.52
		l0.92-1.32l-0.87-1.26H123.46z"/>
	<path class="st5" d="M125.71,67.49c0-0.33-0.01-0.6-0.02-0.84h0.42l0.02,0.44h0.01c0.19-0.31,0.5-0.5,0.92-0.5
		c0.62,0,1.09,0.53,1.09,1.31c0,0.93-0.56,1.38-1.17,1.38c-0.34,0-0.64-0.15-0.79-0.4h-0.01v1.4h-0.46V67.49z M126.17,68.17
		c0,0.07,0.01,0.13,0.02,0.19c0.09,0.33,0.37,0.55,0.7,0.55c0.5,0,0.78-0.41,0.78-1c0-0.52-0.27-0.96-0.77-0.96
		c-0.32,0-0.62,0.23-0.71,0.58c-0.02,0.06-0.03,0.13-0.03,0.19V68.17z"/>
	<path class="st5" d="M128.74,65.44h0.47v3.78h-0.47V65.44z"/>
	<path class="st5" d="M132.33,67.91c0,0.95-0.66,1.37-1.28,1.37c-0.7,0-1.24-0.51-1.24-1.33c0-0.86,0.56-1.37,1.28-1.37
		C131.83,66.59,132.33,67.12,132.33,67.91z M130.28,67.94c0,0.56,0.32,0.99,0.78,0.99c0.45,0,0.78-0.42,0.78-1
		c0-0.44-0.22-0.99-0.77-0.99S130.28,67.45,130.28,67.94z"/>
	<path class="st5" d="M132.92,67.45c0-0.3,0-0.56-0.02-0.8h0.41l0.02,0.51h0.02c0.12-0.35,0.4-0.56,0.71-0.56
		c0.05,0,0.09,0,0.13,0.02v0.44c-0.05-0.01-0.1-0.02-0.16-0.02c-0.33,0-0.56,0.25-0.63,0.6c-0.01,0.06-0.02,0.14-0.02,0.22v1.37
		h-0.46V67.45z"/>
	<path class="st5" d="M134.87,68.02c0.01,0.63,0.42,0.89,0.88,0.89c0.33,0,0.54-0.06,0.71-0.13l0.08,0.34
		c-0.17,0.07-0.45,0.16-0.86,0.16c-0.79,0-1.27-0.52-1.27-1.3s0.46-1.39,1.21-1.39c0.84,0,1.07,0.74,1.07,1.21
		c0,0.1-0.01,0.17-0.02,0.22H134.87z M136.24,67.68c0.01-0.3-0.12-0.76-0.65-0.76c-0.47,0-0.68,0.44-0.72,0.76H136.24z"/>
	<path class="st5" d="M137.28,67.45c0-0.3,0-0.56-0.02-0.8h0.41l0.02,0.51h0.02c0.12-0.35,0.4-0.56,0.71-0.56
		c0.05,0,0.09,0,0.13,0.02v0.44c-0.05-0.01-0.1-0.02-0.16-0.02c-0.33,0-0.56,0.25-0.63,0.6c-0.01,0.06-0.02,0.14-0.02,0.22v1.37
		h-0.46V67.45z"/>
</g>
</svg>
